<svg xmlns="http://www.w3.org/2000/svg" xmlns:xlink="http://www.w3.org/1999/xlink" xml:space="preserve" id="financial-deal" x="0" y="0" enable-background="new 0 0 64 64" version="1.1" viewBox="0 0 64 64">
  <pattern id="New_Pattern_Swatch_15" width="28.56" height="28.56" x="-756" y="-252" overflow="visible" patternUnits="userSpaceOnUse" viewBox="0 -28.56 28.56 28.56">
    <rect width="28.56" height="28.56" y="-28.56" fill="none"></rect>
    <rect width="28.56" height="28.56" y="-28.56" fill="#ffdc73"></rect>
  </pattern>
  <pattern id="New_Pattern_Swatch_16" width="28.56" height="28.56" x="-756" y="-252" overflow="visible" patternUnits="userSpaceOnUse" viewBox="0 -28.56 28.56 28.56">
    <rect width="28.56" height="28.56" y="-28.56" fill="none"></rect>
    <rect width="28.56" height="28.56" y="-28.56" fill="#fac964"></rect>
  </pattern>
  <pattern id="New_Pattern_Swatch_17" width="28.56" height="28.56" x="-756" y="-252" overflow="visible" patternUnits="userSpaceOnUse" viewBox="0 -28.56 28.56 28.56">
    <rect width="28.56" height="28.56" y="-28.56" fill="none"></rect>
    <rect width="28.56" height="28.56" y="-28.56" fill="#edb95b"></rect>
  </pattern>
  <pattern id="New_Pattern_Swatch_19" width="28.56" height="28.56" x="-756" y="-252" overflow="visible" patternUnits="userSpaceOnUse" viewBox="0 -28.56 28.56 28.56">
    <rect width="28.56" height="28.56" y="-28.56" fill="none"></rect>
    <rect width="28.56" height="28.56" y="-28.56" fill="#9ad375"></rect>
  </pattern>
  <pattern id="New_Pattern_Swatch_2" width="28.56" height="28.56" x="-756" y="-252" overflow="visible" patternUnits="userSpaceOnUse" viewBox="0 -28.56 28.56 28.56">
    <rect width="28.56" height="28.56" y="-28.56" fill="none"></rect>
    <rect width="28.56" height="28.56" y="-28.56" fill="#fc94a3"></rect>
  </pattern>
  <pattern id="New_Pattern_Swatch_24" width="28.56" height="28.56" x="-756" y="-252" overflow="visible" patternUnits="userSpaceOnUse" viewBox="0 -28.56 28.56 28.56">
    <rect width="28.56" height="28.56" y="-28.56" fill="none"></rect>
    <rect width="28.56" height="28.56" y="-28.56" fill="#4b518a"></rect>
  </pattern>
  <pattern xlink:href="#New_Pattern_Swatch_24" id="SVGID_1_" patternTransform="translate(-4.334 -14.445)"></pattern>
  <path fill="url(#SVGID_1_)" d="M59.98,41.76l-9.3-19.42c-0.35-0.73-1.24-1.04-1.97-0.69l-4.66,2.23c-0.36,0.17-0.63,0.47-0.76,0.84
		c-0.13,0.37-0.11,0.77,0.06,1.13l0.76,1.57c-0.65-0.11-1.52-0.38-2.49-0.68c-4.09-1.28-10.92-3.4-16.9,1.51l-4.48-0.31l0.83-1.64
		c0.17-0.35,0.2-0.75,0.08-1.13c-0.12-0.37-0.38-0.68-0.74-0.86l-4.6-2.33c-0.36-0.18-0.76-0.21-1.13-0.09
		c-0.38,0.12-0.68,0.39-0.86,0.74L4.04,41.94c-0.37,0.73-0.08,1.62,0.65,1.99l4.6,2.33c0.21,0.11,0.44,0.16,0.67,0.16
		c0.16,0,0.31-0.02,0.46-0.07c0.38-0.12,0.68-0.39,0.86-0.74l0.69-1.36l1.4,1.44l-2.6,2.6c-0.69,0.68-1.07,1.59-1.07,2.56
		c0,0.97,0.38,1.88,1.07,2.57c0.68,0.68,1.59,1.06,2.56,1.06c0.34,0,0.66-0.06,0.97-0.15c-0.18,1.57,0.65,3.25,2.13,3.97
		c0.47,0.22,0.98,0.33,1.48,0.33c0.51,0,1.02-0.11,1.51-0.32c0.07,1.45,1.12,2.8,2.82,3.43c0.42,0.15,0.85,0.22,1.27,0.22
		c0.59,0,1.17-0.15,1.7-0.41c0.16,0.78,0.61,1.47,1.3,1.94c0.51,0.34,1.1,0.51,1.7,0.51c0.87,0,1.75-0.35,2.43-1.02l0.55-0.56
		c0.72,0.52,1.54,0.81,2.35,0.81c0.38,0,0.76-0.06,1.13-0.18c1.23-0.4,2.17-1.42,2.64-2.82l1.06,0.75c0.61,0.44,1.33,0.66,2.04,0.66
		c0.58,0,1.14-0.15,1.63-0.46c0.83-0.52,1.38-1.26,1.55-2.08c0.07-0.32,0.07-0.66,0.01-1c0.44,0.16,0.89,0.23,1.34,0.23
		c0.43,0,0.87-0.07,1.27-0.22c1.08-0.41,1.87-1.23,2.18-2.24c0.21-0.68,0.15-1.42-0.1-2.16c0.28,0.06,0.56,0.11,0.85,0.11
		c1.02,0,2.01-0.44,2.72-1.2c0.67-0.73,1.01-1.68,0.97-2.67c-0.05-0.99-0.48-1.91-1.22-2.58c-0.11-0.1-0.25-0.22-0.37-0.32
		c0.58-0.62,1.04-1.24,1.37-1.86l0.04,0.08c0.26,0.53,0.79,0.84,1.34,0.84c0.21,0,0.43-0.05,0.63-0.15l4.66-2.23
		C60.02,43.38,60.33,42.5,59.98,41.76z M10.4,45.17c-0.06,0.11-0.16,0.2-0.28,0.24c-0.13,0.04-0.26,0.03-0.38-0.03l-4.61-2.33
		c-0.24-0.12-0.34-0.42-0.22-0.66l9.79-19.32c0.06-0.11,0.16-0.2,0.29-0.24c0.12-0.04,0.26-0.03,0.37,0.03l4.61,2.33
		c0.12,0.06,0.2,0.16,0.25,0.29c0.04,0.12,0.03,0.26-0.03,0.37l-1.17,2.3L10.4,45.17z M11.46,52.72c-1.03-1.03-1.03-2.7,0-3.74
		l2.95-2.94c0.51-0.52,1.19-0.77,1.87-0.77c0.67,0,1.35,0.25,1.86,0.77c1.04,1.03,1.04,2.71,0,3.74l-2.94,2.94
		C14.17,53.75,12.49,53.75,11.46,52.72z M16.86,57.41c-1.42-0.68-1.9-2.44-1.42-3.62c0.16-0.11,0.32-0.23,0.46-0.37l2.83-2.83
		c0.04-0.03,0.09-0.05,0.12-0.09c1.25-1.34,2.48-0.76,2.96-0.45c0.65,0.43,1.06,1.13,1.15,1.96c0.1,0.92-0.21,1.86-0.84,2.51
		l-2.11,2.2C19.14,57.62,17.87,57.9,16.86,57.41z M25.73,59.9c-0.77,0.95-2.04,1.32-3.15,0.91c-1.57-0.58-2.44-1.91-2.13-3.19
		c0.09-0.07,0.18-0.14,0.27-0.22l2.11-2.2c0.4-0.41,0.69-0.9,0.88-1.44c0.61-0.09,2.21-0.23,3.27,0.75c0.98,0.9,1.02,2.56,0.11,3.7
		L25.73,59.9z M30.8,61.42l-0.86,0.86c-0.8,0.8-2.04,0.97-2.88,0.39c-0.61-0.41-0.93-1.07-0.93-1.8c0.13-0.11,0.25-0.22,0.36-0.35
		l1.36-1.69c0.4-0.49,0.65-1.05,0.78-1.62c0.61-0.02,1.97,0.11,2.66,1.52C31.73,59.61,31.53,60.69,30.8,61.42z M51.84,50
		c0.04,0.72-0.22,1.42-0.71,1.95c-0.91,0.99-2.53,1.14-3.6,0.36L36.48,44.2c-0.21-0.16-0.52-0.12-0.69,0.1
		c-0.16,0.22-0.11,0.53,0.11,0.69l10.97,8.05c0.61,0.88,0.82,1.76,0.58,2.54c-0.22,0.72-0.8,1.31-1.59,1.6
		c-0.91,0.35-2.02,0.15-2.89-0.52l-9.82-7.52c-0.22-0.16-0.53-0.12-0.69,0.1c-0.16,0.21-0.12,0.52,0.09,0.69l9.74,7.45
		c0.33,0.52,0.44,1.03,0.34,1.52c-0.12,0.56-0.52,1.07-1.11,1.45c-0.75,0.47-1.78,0.4-2.58-0.17l-8.39-5.99
		c-0.22-0.16-0.53-0.1-0.69,0.12c-0.16,0.22-0.11,0.53,0.12,0.68l6.48,4.63c-0.34,1.26-1.09,2.17-2.1,2.5
		c-0.84,0.27-1.72,0.1-2.5-0.44c0.72-1,0.85-2.3,0.31-3.39c-0.81-1.65-2.37-2.07-3.43-2.06c-0.04-0.92-0.4-1.8-1.09-2.45
		c-1.18-1.08-2.79-1.12-3.71-1.04c0.02-0.28,0.03-0.56,0-0.84c-0.13-1.11-0.7-2.08-1.59-2.67c-0.83-0.54-1.72-0.67-2.57-0.44
		c0.07-0.28,0.12-0.58,0.12-0.88c0-0.97-0.37-1.88-1.06-2.57c-1.25-1.25-3.34-1.34-4.74-0.31l-1.66-1.71l7.31-14.43l3.95,0.27
		c-0.11,0.1-0.2,0.19-0.31,0.3c-1.2,1.24-1.91,2.85-2.02,4.53c-0.14,2.1-0.52,3.79-1.13,5.02c-0.22,0.44-0.11,0.96,0.26,1.26
		c1.25,0.94,3.15,1.03,4.84,0.23c1.75-0.83,2.83-2.37,2.89-4.07c0-0.02,0.31-2.03,1.73-3.05c0.76-0.54,1.72-0.72,2.86-0.51
		c1.02,0.18,2.03,0.7,2.92,1.5l2.96,2.68c3.72,3.35,9.15,8.25,12.25,11.06C51.49,48.59,51.81,49.27,51.84,50z M50.52,46.39
		c-3.17-2.87-7.84-7.08-11.16-10.08l-2.96-2.67c-1.03-0.93-2.21-1.53-3.41-1.74c-1.41-0.25-2.63-0.02-3.61,0.69
		c-1.76,1.27-2.11,3.6-2.13,3.75c-0.05,1.38-0.92,2.6-2.33,3.27c-1.37,0.65-2.87,0.6-3.8-0.16c0.67-1.35,1.09-3.17,1.23-5.39
		c0.09-1.45,0.71-2.84,1.75-3.92c0.36-0.36,0.7-0.69,1.03-0.96c0.02-0.02,0.04-0.03,0.06-0.05c5.61-4.74,11.94-2.76,16.14-1.45
		c1.41,0.44,2.47,0.76,3.27,0.77l7.46,15.58C51.78,44.8,51.26,45.6,50.52,46.39z M58.86,42.84l-4.66,2.24
		c-0.25,0.11-0.54,0.01-0.66-0.23l-8.2-17.13c0-0.01-0.01-0.02-0.01-0.02l-1.09-2.28c-0.06-0.11-0.06-0.25-0.02-0.37
		c0.04-0.13,0.13-0.22,0.25-0.28l4.66-2.23c0.07-0.04,0.15-0.05,0.22-0.05c0.18,0,0.36,0.1,0.44,0.28l9.3,19.42
		C59.21,42.43,59.1,42.73,58.86,42.84z"></path>
  <pattern xlink:href="#New_Pattern_Swatch_19" id="SVGID_2_" patternTransform="translate(-4.333 -14.445)"></pattern>
  <path fill="url(#SVGID_2_)" d="M58.86,42.84l-4.66,2.24c-0.25,0.11-0.54,0.01-0.66-0.23l-8.2-17.13c0-0.01-0.01-0.02-0.01-0.02l-1.09-2.28
		c-0.06-0.11-0.06-0.25-0.02-0.37c0.04-0.13,0.13-0.22,0.25-0.28l4.66-2.23c0.07-0.04,0.15-0.05,0.22-0.05
		c0.18,0,0.36,0.1,0.44,0.28l9.3,19.42C59.21,42.43,59.1,42.73,58.86,42.84z"></path>
  <pattern xlink:href="#New_Pattern_Swatch_2" id="SVGID_3_" patternTransform="translate(-4.333 -14.445)"></pattern>
  <path fill="url(#SVGID_3_)" d="M20.19,25.85l-1.17,2.3L10.4,45.17c-0.06,0.11-0.16,0.2-0.28,0.24c-0.13,0.04-0.26,0.03-0.38-0.03l-4.61-2.33
		c-0.24-0.12-0.34-0.42-0.22-0.66l9.79-19.32c0.06-0.11,0.16-0.2,0.29-0.24c0.12-0.04,0.26-0.03,0.37,0.03l4.61,2.33
		c0.12,0.06,0.2,0.16,0.25,0.29C20.26,25.6,20.25,25.74,20.19,25.85z"></path>
  <pattern xlink:href="#New_Pattern_Swatch_16" id="SVGID_4_" patternTransform="translate(-4.333 -14.445)"></pattern>
  <path fill="url(#SVGID_4_)" d="M30.8,61.42l-0.86,0.86c-0.8,0.8-2.04,0.97-2.88,0.39c-0.61-0.41-0.93-1.07-0.93-1.8
		c0.13-0.11,0.25-0.22,0.36-0.35l1.36-1.69c0.4-0.49,0.65-1.05,0.78-1.62c0.61-0.02,1.97,0.11,2.66,1.52
		C31.73,59.61,31.53,60.69,30.8,61.42z"></path>
  <pattern xlink:href="#New_Pattern_Swatch_16" id="SVGID_5_" patternTransform="translate(-4.333 -14.445)"></pattern>
  <path fill="url(#SVGID_5_)" d="M27.09,58.21l-1.36,1.69c-0.77,0.95-2.04,1.32-3.15,0.91c-1.57-0.58-2.44-1.91-2.13-3.19
		c0.09-0.07,0.18-0.14,0.27-0.22l2.11-2.2c0.4-0.41,0.69-0.9,0.88-1.44c0.61-0.09,2.21-0.23,3.27,0.75
		C27.96,55.41,28,57.07,27.09,58.21z"></path>
  <pattern xlink:href="#New_Pattern_Swatch_16" id="SVGID_6_" patternTransform="translate(-4.333 -14.445)"></pattern>
  <path fill="url(#SVGID_6_)" d="M22.96,52.01c0.1,0.92-0.21,1.86-0.84,2.51l-2.11,2.2c-0.87,0.9-2.14,1.18-3.15,0.69
		c-1.42-0.68-1.9-2.44-1.42-3.62c0.16-0.11,0.32-0.23,0.46-0.37l2.83-2.83c0.04-0.03,0.09-0.05,0.12-0.09
		c1.25-1.34,2.48-0.76,2.96-0.45C22.46,50.48,22.87,51.18,22.96,52.01z"></path>
  <pattern xlink:href="#New_Pattern_Swatch_16" id="SVGID_7_" patternTransform="translate(-4.333 -14.445)"></pattern>
  <path fill="url(#SVGID_7_)" d="M18.14,49.78l-2.94,2.94c-1.03,1.03-2.71,1.03-3.74,0c-1.03-1.03-1.03-2.7,0-3.74l2.95-2.94
		c0.51-0.52,1.19-0.77,1.87-0.77c0.67,0,1.35,0.25,1.86,0.77C19.18,47.07,19.18,48.75,18.14,49.78z"></path>
  <pattern xlink:href="#New_Pattern_Swatch_16" id="SVGID_8_" patternTransform="translate(-4.333 -14.445)"></pattern>
  <path fill="url(#SVGID_8_)" d="M52.06,44.03c-0.28,0.77-0.8,1.57-1.54,2.36c-3.17-2.87-7.84-7.08-11.16-10.08l-2.96-2.67
		c-1.03-0.93-2.21-1.53-3.41-1.74c-1.41-0.25-2.63-0.02-3.61,0.69c-1.76,1.27-2.11,3.6-2.13,3.75c-0.05,1.38-0.92,2.6-2.33,3.27
		c-1.37,0.65-2.87,0.6-3.8-0.16c0.67-1.35,1.09-3.17,1.23-5.39c0.09-1.45,0.71-2.84,1.75-3.92c0.36-0.36,0.7-0.69,1.03-0.96
		c0.02-0.02,0.04-0.03,0.06-0.05c5.61-4.74,11.94-2.76,16.14-1.45c1.41,0.44,2.47,0.76,3.27,0.77L52.06,44.03z"></path>
  <pattern xlink:href="#New_Pattern_Swatch_15" id="SVGID_9_" patternTransform="translate(-4.333 -14.445)"></pattern>
  <path fill="url(#SVGID_9_)" d="M51.84,50c0.04,0.72-0.22,1.42-0.71,1.95c-0.91,0.99-2.53,1.14-3.6,0.36L36.48,44.2
		c-0.21-0.16-0.52-0.12-0.69,0.1c-0.16,0.22-0.11,0.53,0.11,0.69l10.97,8.05c0.61,0.88,0.82,1.76,0.58,2.54
		c-0.22,0.72-0.8,1.31-1.59,1.6c-0.91,0.35-2.02,0.15-2.89-0.52l-9.82-7.52c-0.22-0.16-0.53-0.12-0.69,0.1
		c-0.16,0.21-0.12,0.52,0.09,0.69l9.74,7.45c0.33,0.52,0.44,1.03,0.34,1.52c-0.12,0.56-0.52,1.07-1.11,1.45
		c-0.75,0.47-1.78,0.4-2.58-0.17l-8.39-5.99c-0.22-0.16-0.53-0.1-0.69,0.12c-0.16,0.22-0.11,0.53,0.12,0.68l6.48,4.63
		c-0.34,1.26-1.09,2.17-2.1,2.5c-0.84,0.27-1.72,0.1-2.5-0.44c0.72-1,0.85-2.3,0.31-3.39c-0.81-1.65-2.37-2.07-3.43-2.06
		c-0.04-0.92-0.4-1.8-1.09-2.45c-1.18-1.08-2.79-1.12-3.71-1.04c0.02-0.28,0.03-0.56,0-0.84c-0.13-1.11-0.7-2.08-1.59-2.67
		c-0.83-0.54-1.72-0.67-2.57-0.44c0.07-0.28,0.12-0.58,0.12-0.88c0-0.97-0.37-1.88-1.06-2.57c-1.25-1.25-3.34-1.34-4.74-0.31
		l-1.66-1.71l7.31-14.43l3.95,0.27c-0.11,0.1-0.2,0.19-0.31,0.3c-1.2,1.24-1.91,2.85-2.02,4.53c-0.14,2.1-0.52,3.79-1.13,5.02
		c-0.22,0.44-0.11,0.96,0.26,1.26c1.25,0.94,3.15,1.03,4.84,0.23c1.75-0.83,2.83-2.37,2.89-4.07c0-0.02,0.31-2.03,1.73-3.05
		c0.76-0.54,1.72-0.72,2.86-0.51c1.02,0.18,2.03,0.7,2.92,1.5l2.96,2.68c3.72,3.35,9.15,8.25,12.25,11.06
		C51.49,48.59,51.81,49.27,51.84,50z"></path>
  <pattern xlink:href="#New_Pattern_Swatch_24" id="SVGID_10_" patternTransform="translate(-4.334 -14.445)"></pattern>
  <path fill="url(#SVGID_10_)" d="M40.45,3.13c0,0-0.01-0.01-0.02-0.01C38.48,1.19,35.8,0,32.85,0c-3.01,0-5.74,1.24-7.7,3.24h-0.01
		c-1.92,1.96-3.11,4.63-3.11,7.59c0,3,1.23,5.73,3.22,7.69c0.01,0,0.01,0.01,0.02,0.02c1.95,1.92,4.63,3.11,7.58,3.11
		c2.96,0,5.64-1.2,7.6-3.13c0.01-0.01,0.03-0.02,0.04-0.04c1.97-1.96,3.18-4.67,3.18-7.65C43.67,7.82,42.44,5.1,40.45,3.13z
		 M40.29,4.41c1.43,1.65,2.31,3.78,2.38,6.11c-0.34,0.14-0.74,0.12-1.22-0.05c-0.08-1.99-0.83-3.81-2.05-5.24
		C39.78,5.01,40.08,4.73,40.29,4.41z M33.57,1.02c2.32,0.17,4.41,1.15,6.01,2.65c-0.15,0.34-0.44,0.61-0.9,0.83
		c-1.38-1.28-3.17-2.1-5.15-2.26C33.64,1.81,33.65,1.4,33.57,1.02z M32.55,1c0.13,0.35,0.12,0.75-0.05,1.22
		c-2,0.08-3.82,0.84-5.24,2.06c-0.23-0.39-0.51-0.68-0.83-0.89C28.08,1.96,30.21,1.07,32.55,1z M25.69,4.1
		c0.35,0.14,0.62,0.44,0.83,0.89c-1.27,1.38-2.1,3.18-2.25,5.16c-0.44-0.11-0.84-0.12-1.22-0.04C23.22,7.79,24.19,5.69,25.69,4.1z
		 M25.41,17.25c-1.43-1.66-2.31-3.79-2.38-6.12c0.34-0.14,0.74-0.12,1.22,0.05c0.08,1.99,0.84,3.81,2.05,5.24
		C25.92,16.64,25.63,16.92,25.41,17.25z M32.13,20.63c-2.32-0.17-4.41-1.15-6.01-2.65c0.15-0.34,0.44-0.61,0.9-0.83
		c1.38,1.28,3.17,2.11,5.15,2.26C32.06,19.84,32.05,20.25,32.13,20.63z M25.22,10.83c0-4.21,3.42-7.64,7.63-7.64
		s7.64,3.43,7.64,7.64s-3.43,7.63-7.64,7.63S25.22,15.04,25.22,10.83z M33.15,20.65c-0.13-0.35-0.12-0.75,0.05-1.22
		c2-0.08,3.82-0.84,5.24-2.06c0.23,0.39,0.51,0.68,0.83,0.89C37.62,19.69,35.49,20.58,33.15,20.65z M40.01,17.56
		c-0.34-0.15-0.61-0.45-0.83-0.9c1.27-1.38,2.1-3.17,2.26-5.16c0.25,0.07,0.5,0.11,0.74,0.11c0.17,0,0.32-0.03,0.47-0.07
		C42.48,13.86,41.51,15.96,40.01,17.56z"></path>
  <pattern xlink:href="#New_Pattern_Swatch_15" id="SVGID_11_" patternTransform="translate(-4.333 -14.445)"></pattern>
  <path fill="url(#SVGID_11_)" d="M32.85,3.19c-4.21,0-7.63,3.43-7.63,7.64s3.42,7.63,7.63,7.63s7.64-3.42,7.64-7.63S37.06,3.19,32.85,3.19z
		 M32.85,10.33c1.46,0,2.65,1.19,2.65,2.65c0,1.3-0.93,2.38-2.16,2.61v0.84c0,0.27-0.22,0.49-0.49,0.49s-0.49-0.22-0.49-0.49v-0.84
		c-1.23-0.23-2.16-1.31-2.16-2.61c0-0.27,0.22-0.49,0.49-0.49s0.49,0.22,0.49,0.49c0,0.92,0.75,1.67,1.67,1.67
		c0.92,0,1.67-0.75,1.67-1.67c0-0.91-0.75-1.66-1.67-1.66c-1.46,0-2.65-1.19-2.65-2.65c0-1.3,0.93-2.37,2.16-2.61V5.22
		c0-0.27,0.22-0.49,0.49-0.49s0.49,0.22,0.49,0.49v0.84c1.23,0.24,2.16,1.31,2.16,2.61c0,0.27-0.22,0.49-0.49,0.49
		s-0.49-0.22-0.49-0.49c0-0.92-0.75-1.67-1.67-1.67c-0.92,0-1.67,0.75-1.67,1.67S31.93,10.33,32.85,10.33z"></path>
  <pattern xlink:href="#New_Pattern_Swatch_17" id="SVGID_12_" patternTransform="translate(-4.334 -14.445)"></pattern>
  <path fill="url(#SVGID_12_)" d="M39.58,3.67c-0.15,0.34-0.44,0.61-0.9,0.83c-1.38-1.28-3.17-2.1-5.15-2.26c0.11-0.43,0.12-0.84,0.04-1.22
		C35.89,1.19,37.98,2.17,39.58,3.67z"></path>
  <pattern xlink:href="#New_Pattern_Swatch_17" id="SVGID_13_" patternTransform="translate(-4.334 -14.445)"></pattern>
  <path fill="url(#SVGID_13_)" d="M42.67,10.52c-0.34,0.14-0.74,0.12-1.22-0.05c-0.08-1.99-0.83-3.81-2.05-5.24c0.38-0.22,0.68-0.5,0.89-0.82
		C41.72,6.06,42.6,8.19,42.67,10.52z"></path>
  <pattern xlink:href="#New_Pattern_Swatch_17" id="SVGID_14_" patternTransform="translate(-4.334 -14.445)"></pattern>
  <path fill="url(#SVGID_14_)" d="M42.65,11.54c-0.17,2.32-1.14,4.42-2.64,6.02c-0.34-0.15-0.61-0.45-0.83-0.9c1.27-1.38,2.1-3.17,2.26-5.16
		c0.25,0.07,0.5,0.11,0.74,0.11C42.35,11.61,42.5,11.58,42.65,11.54z"></path>
  <pattern xlink:href="#New_Pattern_Swatch_17" id="SVGID_15_" patternTransform="translate(-4.334 -14.445)"></pattern>
  <path fill="url(#SVGID_15_)" d="M39.27,18.26c-1.65,1.43-3.78,2.32-6.12,2.39c-0.13-0.35-0.12-0.75,0.05-1.22c2-0.08,3.82-0.84,5.24-2.06
		C38.67,17.76,38.95,18.05,39.27,18.26z"></path>
  <pattern xlink:href="#New_Pattern_Swatch_17" id="SVGID_16_" patternTransform="translate(-4.334 -14.445)"></pattern>
  <path fill="url(#SVGID_16_)" d="M32.13,20.63c-2.32-0.17-4.41-1.15-6.01-2.65c0.15-0.34,0.44-0.61,0.9-0.83c1.38,1.28,3.17,2.11,5.15,2.26
		C32.06,19.84,32.05,20.25,32.13,20.63z"></path>
  <pattern xlink:href="#New_Pattern_Swatch_17" id="SVGID_17_" patternTransform="translate(-4.334 -14.445)"></pattern>
  <path fill="url(#SVGID_17_)" d="M26.3,16.42c-0.38,0.22-0.67,0.5-0.89,0.83c-1.43-1.66-2.31-3.79-2.38-6.12c0.34-0.14,0.74-0.12,1.22,0.05
		C24.33,13.17,25.09,14.99,26.3,16.42z"></path>
  <pattern xlink:href="#New_Pattern_Swatch_17" id="SVGID_18_" patternTransform="translate(-4.334 -14.445)"></pattern>
  <path fill="url(#SVGID_18_)" d="M26.52,4.99c-1.27,1.38-2.1,3.18-2.25,5.16c-0.44-0.11-0.84-0.12-1.22-0.04c0.17-2.32,1.14-4.42,2.64-6.01
		C26.04,4.24,26.31,4.54,26.52,4.99z"></path>
  <pattern xlink:href="#New_Pattern_Swatch_17" id="SVGID_19_" patternTransform="translate(-4.334 -14.445)"></pattern>
  <path fill="url(#SVGID_19_)" d="M32.5,2.22c-2,0.08-3.82,0.84-5.24,2.06c-0.23-0.39-0.51-0.68-0.83-0.89c1.65-1.43,3.78-2.32,6.12-2.39
		C32.68,1.35,32.67,1.75,32.5,2.22z"></path>
  <pattern xlink:href="#New_Pattern_Swatch_24" id="SVGID_20_" patternTransform="translate(-4.334 -14.445)"></pattern>
  <path fill="url(#SVGID_20_)" d="M35.5,12.98c0,1.3-0.93,2.38-2.16,2.61v0.84c0,0.27-0.22,0.49-0.49,0.49s-0.49-0.22-0.49-0.49v-0.84
		c-1.23-0.23-2.16-1.31-2.16-2.61c0-0.27,0.22-0.49,0.49-0.49s0.49,0.22,0.49,0.49c0,0.92,0.75,1.67,1.67,1.67
		c0.92,0,1.67-0.75,1.67-1.67c0-0.91-0.75-1.66-1.67-1.66c-1.46,0-2.65-1.19-2.65-2.65c0-1.3,0.93-2.37,2.16-2.61V5.22
		c0-0.27,0.22-0.49,0.49-0.49s0.49,0.22,0.49,0.49v0.84c1.23,0.24,2.16,1.31,2.16,2.61c0,0.27-0.22,0.49-0.49,0.49
		s-0.49-0.22-0.49-0.49c0-0.92-0.75-1.67-1.67-1.67c-0.92,0-1.67,0.75-1.67,1.67s0.75,1.66,1.67,1.66
		C34.31,10.33,35.5,11.52,35.5,12.98z"></path>
</svg>
