<svg xmlns="http://www.w3.org/2000/svg" xml:space="preserve" id="smart-grids" width="512" height="512" x="0" y="0" enable-background="new 0 0 512 512" version="1.1" viewBox="0 0 512 512">
  <g>
    <g>
      <path fill="#56C5D0" d="M169.367,455.174c-0.901,0-1.821-0.182-2.701-0.569c-22.313-9.668-42.732-22.968-60.692-39.527
			c-2.764-2.548-2.939-6.853-0.392-9.613c2.551-2.762,6.855-2.936,9.616-0.396c16.835,15.523,35.972,27.992,56.879,37.051
			c3.45,1.496,5.032,5.499,3.539,8.949C174.502,453.64,171.998,455.174,169.367,455.174z M335.826,455.174
			c-2.631,0-5.135-1.534-6.249-4.105c-1.493-3.45,0.09-7.453,3.539-8.949c12.459-5.403,24.432-12.097,35.586-19.906
			c3.073-2.151,7.318-1.408,9.479,1.67c2.153,3.086,1.406,7.326-1.674,9.479c-11.901,8.331-24.679,15.483-37.979,21.243
			C337.647,454.992,336.728,455.174,335.826,455.174z M457.232,308.124c-0.484,0-0.978-0.056-1.472-0.159
			c-3.671-0.814-5.989-4.446-5.181-8.109c4.575-20.745,5.865-42.06,3.836-63.351c-0.356-3.742,2.387-7.065,6.127-7.421
			c3.769-0.333,7.065,2.381,7.422,6.132c2.166,22.699,0.789,45.438-4.093,67.567C463.172,305.956,460.357,308.124,457.232,308.124z
			 M45.455,294.776c-3.303,0-6.203-2.413-6.719-5.775c-4.407-28.776-2.932-58.81,4.265-86.873c0.934-3.64,4.642-5.847,8.283-4.905
			c3.64,0.934,5.835,4.645,4.901,8.283c-6.745,26.3-8.127,54.458-3.995,81.438c0.569,3.711-1.982,7.184-5.697,7.754
			C46.144,294.753,45.798,294.776,45.455,294.776z M395.151,109.234c-1.657,0-3.319-0.602-4.628-1.813
			c-13.18-12.239-27.905-22.675-43.768-31.006c-3.326-1.749-4.608-5.863-2.859-9.194c1.75-3.331,5.862-4.604,9.189-2.855
			c16.928,8.893,32.639,20.024,46.698,33.079c2.755,2.556,2.913,6.859,0.355,9.621C398.799,108.506,396.978,109.234,395.151,109.234
			z M127.99,94.328c-2.083,0-4.138-0.949-5.473-2.753c-2.239-3.022-1.604-7.287,1.416-9.519
			c14.811-10.974,30.975-20.025,48.043-26.885c3.483-1.408,7.451,0.285,8.852,3.774c1.402,3.489-0.289,7.453-3.776,8.854
			c-15.99,6.433-31.137,14.905-45.017,25.191C130.818,93.893,129.396,94.328,127.99,94.328z"></path>
    </g>
    <g>
      <rect width="26.038" height="38.761" x="20.58" y="71.708" fill="#D9B1EE" fill-rule="evenodd" clip-rule="evenodd"></rect>
    </g>
    <g>
      <polygon fill="#D9B1EE" fill-rule="evenodd" points="14.405 182.443 118.411 182.443 118.411 106.687 66.406 76.091 14.405 106.687" clip-rule="evenodd"></polygon>
    </g>
    <g>
      <path fill="#E5E5E5" fill-rule="evenodd" d="M50.642,182.443h31.537v-27.93
			c0-8.671-7.098-15.768-15.772-15.768l0,0c-8.672,0-15.765,7.097-15.765,15.768V182.443z" clip-rule="evenodd"></path>
    </g>
    <g>
      <path fill="#FFE07D" fill-rule="evenodd" d="M276.878,102.192c18.02,0,32.72-14.7,32.72-32.716
			c0-18.023-14.7-32.724-32.72-32.724c-18.019,0-32.72,14.7-32.72,32.724C244.158,87.492,258.859,102.192,276.878,102.192z" clip-rule="evenodd"></path>
    </g>
    <g>
      <path fill="#FFE07D" d="M276.878,43.558c-3.758,0-6.806-3.046-6.806-6.805V17.805c0-3.759,3.048-6.805,6.806-6.805
			c3.759,0,6.807,3.046,6.807,6.805v18.948C283.685,40.512,280.637,43.558,276.878,43.558z"></path>
    </g>
    <g>
      <path fill="#FFE07D" d="M253.744,53.146c-1.743,0-3.483-0.664-4.813-1.993L235.533,37.75c-2.657-2.65-2.657-6.962,0-9.621
			c2.658-2.658,6.966-2.658,9.624,0l13.399,13.403c2.656,2.65,2.656,6.962,0,9.621C257.228,52.482,255.486,53.146,253.744,53.146z"></path>
    </g>
    <g>
      <path fill="#FFE07D" d="M300.013,53.146c-1.742,0-3.483-0.664-4.813-1.993c-2.656-2.659-2.656-6.971,0-9.621L308.6,28.129
			c2.658-2.658,6.966-2.658,9.624,0c2.657,2.659,2.657,6.971,0,9.621l-13.398,13.403C303.496,52.482,301.755,53.146,300.013,53.146z
			"></path>
    </g>
    <g>
      <path fill="#FFE07D" d="M328.547,76.281h-18.949c-3.758,0-6.806-3.046-6.806-6.805c0-3.758,3.048-6.804,6.806-6.804h18.949
			c3.759,0,6.807,3.046,6.807,6.804C335.354,73.235,332.306,76.281,328.547,76.281z"></path>
    </g>
    <g>
      <path fill="#E5E5E5" fill-rule="evenodd" d="M285.961,86.021c24.614,2.129,23.095,39.188-1.688,39.188
			c-29.35,0-58.691,0-88.036,0c-20.425,0-27.296-27.715-8.877-37.122c1.428-17.992,18.082-32.186,38.416-32.186
			c11.749,0,22.268,4.739,29.333,12.208c2.263-0.649,4.672-1.005,7.169-1.005C274.319,67.104,284.284,75.324,285.961,86.021z" clip-rule="evenodd"></path>
    </g>
    <g>
      <path fill="#8FB72C" d="M314.448,441.621h-82.676c-16.643,0-30.182-13.537-30.182-30.184c0-16.639,13.539-30.176,30.182-30.176
			s30.182,13.537,30.182,30.176c0,3.758-3.048,6.804-6.806,6.804s-6.807-3.046-6.807-6.804c0-9.139-7.433-16.567-16.569-16.567
			c-9.136,0-16.569,7.429-16.569,16.567c0,9.138,7.434,16.575,16.569,16.575h82.676c3.758,0,6.806,3.046,6.806,6.804
			C321.254,438.575,318.206,441.621,314.448,441.621z"></path>
    </g>
    <g>
      <path fill="#8FB72C" d="M253.237,501c-13.296,0-24.113-10.815-24.113-24.115c0-13.292,10.817-24.107,24.113-24.107h61.211
			c3.758,0,6.806,3.046,6.806,6.804c0,3.759-3.048,6.805-6.806,6.805h-61.211c-5.791,0-10.501,4.707-10.501,10.499
			c0,5.791,4.71,10.507,10.501,10.507c5.792,0,10.501-4.716,10.501-10.507c0-3.759,3.049-6.805,6.807-6.805s6.807,3.046,6.807,6.805
			C277.352,490.185,266.533,501,253.237,501z"></path>
    </g>
    <g>
      <path fill="#8FB72C" d="M253.237,466.386h-62.492c-3.758,0-6.806-3.046-6.806-6.805c0-3.758,3.048-6.804,6.806-6.804h62.492
			c3.759,0,6.807,3.046,6.807,6.804C260.044,463.34,256.996,466.386,253.237,466.386z"></path>
    </g>
    <g>
      <polygon fill="#4F4B6A" fill-rule="evenodd" points="68.016 356.283 76.877 356.283 85.742 356.283 91.095 440.292 76.877 440.292 62.659 440.292" clip-rule="evenodd"></polygon>
    </g>
    <g>
      <path fill="#4F4B6A" fill-rule="evenodd" d="M77.039,272.56c7.082,5.887,11.936,17.913,11.936,31.79
			c0,13.878-4.854,25.903-11.936,31.782c-7.085-5.879-11.938-17.904-11.938-31.782C65.101,290.473,69.954,278.446,77.039,272.56z" clip-rule="evenodd"></path>
    </g>
    <g>
      <path fill="#4F4B6A" fill-rule="evenodd" d="M139.67,381.048c-8.636,3.196-21.477,1.385-33.495-5.555
			c-12.018-6.938-20.005-17.152-21.56-26.228c8.636-3.196,21.477-1.385,33.499,5.554
			C130.133,361.759,138.119,371.973,139.67,381.048z" clip-rule="evenodd"></path>
    </g>
    <g>
      <path fill="#4F4B6A" fill-rule="evenodd" d="M14.405,381.048c1.551-9.075,9.537-19.289,21.556-26.229
			c12.022-6.938,24.863-8.75,33.499-5.554c-1.555,9.075-9.542,19.289-21.56,26.228C35.882,382.433,23.041,384.244,14.405,381.048z" clip-rule="evenodd"></path>
    </g>
    <g>
      <path fill="#8FB72C" fill-rule="evenodd" d="M77.039,365.358c9.934,0,18.031-8.102,18.031-18.031
			c0-9.938-8.098-18.039-18.031-18.039c-9.937,0-18.035,8.102-18.035,18.039C59.004,357.257,67.103,365.358,77.039,365.358z" clip-rule="evenodd"></path>
    </g>
    <g>
      <polygon fill="#4F4B6A" fill-rule="evenodd" points="401.791 322.689 442.384 322.689 482.976 322.689 490.788 401.714 442.384 401.714 393.979 401.714" clip-rule="evenodd"></polygon>
    </g>
    <g>
      <polygon fill="#E5E5E5" points="398.56 355.397 435.579 355.397 435.579 322.689 442.384 322.689 449.188 322.689 449.188 355.397 486.208 355.397 487.557 369.006 449.188 369.006 449.188 401.714 442.384 401.714 435.579 401.714 435.579 369.006 397.211 369.006"></polygon>
    </g>
    <g>
      <rect width="42.629" height="38.578" x="421.069" y="401.714" fill="#56C5D0" fill-rule="evenodd" clip-rule="evenodd"></rect>
    </g>
    <g>
      <path fill="#4F4B6A" d="M490.788,447.096h-96.81c-3.758,0-6.807-3.046-6.807-6.804s3.049-6.804,6.807-6.804h96.81
			c3.759,0,6.807,3.046,6.807,6.804S494.547,447.096,490.788,447.096z"></path>
    </g>
    <g>
      <polygon fill="#FED2A4" fill-rule="evenodd" points="366.972 146.491 402.175 124.702 402.175 214.486 366.972 214.486" clip-rule="evenodd"></polygon>
    </g>
    <g>
      <polygon fill="#FED2A4" fill-rule="evenodd" points="414.031 144.252 448.919 144.252 444.52 71.708 418.431 71.708" clip-rule="evenodd"></polygon>
    </g>
    <g>
      <polygon fill="#FED2A4" fill-rule="evenodd" points="490.788 144.252 455.897 144.252 460.3 71.708 486.386 71.708" clip-rule="evenodd"></polygon>
    </g>
    <g>
      <rect width="88.613" height="76.999" x="402.175" y="137.487" fill="#FED2A4" fill-rule="evenodd" clip-rule="evenodd"></rect>
    </g>
    <g>
      <path fill="#E5E5E5" fill-rule="evenodd" d="M430.714,214.486h31.536v-27.921
			c0-8.672-7.093-15.769-15.769-15.769l0,0c-8.671,0-15.768,7.097-15.768,15.769V214.486z" clip-rule="evenodd"></path>
    </g>
    <g>
      <polygon fill="#56C5D0" fill-rule="evenodd" points="285.814 270.827 258.566 243.578 291.262 179.23 219.367 239.021 245.421 268.572 213.919 330.617" clip-rule="evenodd"></polygon>
    </g>
  </g>
</svg>
