<svg xmlns="http://www.w3.org/2000/svg" viewBox="0 0 512 512" id="euro-funding">
  <g>
    <g>
      <path fill="#deffe8" d="M478.682,316.053a26.46,26.46,0,0,1-3.238,37.128l-74.465,61.776a145.769,145.769,0,0,1-99.531,33.577l-107.521-4.961c-13.89-.626-22.559.105-36.293,2.141l-44.7,8.2h-3.028V321.275h1.984l46.476-22.455C183.64,286.6,206.3,280.7,234.345,281.692l71.176,2.924c.574-.052,1.1-.052,1.671-.052a26.4,26.4,0,0,1,26.11,23.29c1.514,13.63-7.572,26.685-21.358,29.243l-52.9,9.974A15.644,15.644,0,0,0,248.5,370.414l5.692,9.712a15.609,15.609,0,0,0,14.047,7.677l51.175-1.671A89.083,89.083,0,0,0,372.153,366.5c20-16.136,48.669-39.321,68.043-55.092a27.316,27.316,0,0,1,38.12,4.021Z"></path>
    </g>
    <g>
      <path fill="#77f7aa" d="M335.286,18.034A120.837,120.837,0,1,1,214.5,138.871,120.836,120.836,0,0,1,335.286,18.034Z"></path>
    </g>
    <g>
      <path fill="#77f7aa" d="M109.906,453.913v19.165a20.883,20.883,0,0,1-20.888,20.888H48.077a20.916,20.916,0,0,1-20.888-20.888V320.753a20.916,20.916,0,0,1,20.888-20.888H89.018a20.882,20.882,0,0,1,20.888,20.888v133.16Z"></path>
    </g>
  </g>
  <g>
    <path fill="#24b361" d="M335.286,269.708c72.144,0,130.837-58.693,130.837-130.837S407.43,8.034,335.286,8.034C263.172,8.034,204.5,66.728,204.5,138.871S263.172,269.708,335.286,269.708Zm0-241.674A110.837,110.837,0,1,1,224.5,138.871,110.963,110.963,0,0,1,335.286,28.034Z"></path>
    <path fill="#24b361" d="M271.683,152a10,10,0,0,0,0,20h16.631a76.226,76.226,0,0,0,11.169,14.712,67.574,67.574,0,0,0,72.261,15.323,10,10,0,1,0-7.223-18.65,47.594,47.594,0,0,1-50.885-10.8c-.19-.19-.367-.581-.554-.581h42.152a10,10,0,0,0,0-20H301.486a45.763,45.763,0,0,1-1.817-11h60.787a10,10,0,0,0,0-20H303.239a46.019,46.019,0,0,1,10.4-15.73,47.688,47.688,0,0,1,50.884-10.831,10.029,10.029,0,0,0,7.223-18.712,67.728,67.728,0,0,0-72.25,15.411A63.718,63.718,0,0,0,282.132,121H271.683a10,10,0,0,0,0,20h7.976a78.31,78.31,0,0,0,1.263,11Z"></path>
    <path fill="#24b361" d="M486.056,309.094a37.2,37.2,0,0,0-52.174-5.444c-19.963,16.251-49.112,39.82-68,55.057a79.608,79.608,0,0,1-46.8,17.43l-51.212,1.673a5.654,5.654,0,0,1-5.057-2.74l-5.714-9.753a5.5,5.5,0,0,1-.294-5.185A5.62,5.62,0,0,1,260.9,356.9l52.873-9.968c18.645-3.462,31.589-21.112,29.47-40.184a36.2,36.2,0,0,0-36.048-32.182c-.511,0-1.115,0-1.81.039L234.7,271.7c-28.212-.994-52.353,4.42-80.684,18.118L117,307.766A30.862,30.862,0,0,0,89.018,290H48.077A30.97,30.97,0,0,0,17,320.753V473.078A31.115,31.115,0,0,0,48.077,504H89.018A31.033,31.033,0,0,0,120,473.078V462.8l39.317-7.219c12.747-1.888,20.726-2.626,34.173-2.02l107.536,4.962a155.442,155.442,0,0,0,106.343-35.871l74.463-61.776c.049-.04.1-.08.142-.121a36.486,36.486,0,0,0,4.981-50.369A9.948,9.948,0,0,0,486.056,309.094ZM100,473.112A10.888,10.888,0,0,1,89.112,484H47.888A10.888,10.888,0,0,1,37,473.112V320.888A10.888,10.888,0,0,1,47.888,310H89.112A10.888,10.888,0,0,1,100,320.888ZM468.98,345.55l-74.4,61.718a135.575,135.575,0,0,1-92.677,31.277l-107.531-4.962c-15.073-.679-24.331.182-38.209,2.24-.113.017-.178.035-.29.056L120,442.468V328.508l42.765-20.685c25.207-12.187,46.487-17.008,71.194-16.139l71.163,2.923a9.739,9.739,0,0,0,1.3-.031c.128-.012.454-.012.772-.012a16.423,16.423,0,0,1,16.17,14.395,16.668,16.668,0,0,1-13.272,18.312l-52.925,9.978a25.643,25.643,0,0,0-17.3,38.22l5.705,9.736A25.61,25.61,0,0,0,268.563,397.8l51.2-1.672a99.766,99.766,0,0,0,58.67-21.846c18.911-15.258,48.087-38.847,68.074-55.118a17.386,17.386,0,0,1,23.619,2.068,10.145,10.145,0,0,0,.816,1.155A16.408,16.408,0,0,1,468.98,345.55Z"></path>
  </g>
</svg>
